Coordinates
version=1
nRows=8
nColumns=42
inDegrees=yes

Units are S.I. units (second, meters, Newtons, ...)
If the header above contains a line with 'inDegrees', this indicates whether rotational values are in degrees (yes) or radians (no).

endheader
time	pelvis_tilt	pelvis_list	pelvis_rotation	pelvis_tx	pelvis_ty	pelvis_tz	hip_flexion_r	hip_adduction_r	hip_rotation_r	knee_angle_r	knee_adduction_r	knee_angle_r_beta	ankle_angle_r	subtalar_angle_r	mtp_angle_r	hip_flexion_l	hip_adduction_l	hip_rotation_l	knee_angle_l	knee_adduction_l	knee_angle_l_beta	ankle_angle_l	subtalar_angle_l	mtp_angle_l	lumbar_extension	lumbar_bending	lumbar_rotation	arm_flex_r	arm_add_r	arm_rot_r	elbow_flex_r	pro_sup_r	wrist_flex_r	wrist_dev_r	arm_flex_l	arm_add_l	arm_rot_l	elbow_flex_l	pro_sup_l	wrist_flex_l	wrist_dev_l
      2.27000000	      1.17127859	      0.42825247	      1.00039333	      0.32732055	      0.97068135	      0.18643105	     22.02055075	     -5.66627229	    -10.50780807	     22.69901480	      3.68808261	      0.39617255	      9.62808663	      8.22536160	     -7.50222565	     -5.66612443	      1.89344487	    -11.63751704	     10.48281597	     -2.37253653	      0.18295965	     17.24536999	     24.86640063	     -7.50222565	    -10.17934834	      0.82268038	     -4.13060830	     -8.69424423	    -12.37062103	      5.49242402	     25.76108790	     90.00000001	      0.00000000	      0.00000000	      8.78876956	    -20.97189629	     20.50473033	     44.30986782	     90.00000001	      0.00000000	      0.00000000
      2.28000000	      1.17931810	      0.70872381	      1.19561164	      0.33779506	      0.96885351	      0.18636094	     22.10902217	     -5.95620010	    -11.12354763	     20.14516475	      3.73508309	      0.35159945	      9.36169320	      9.10980785	     -7.50219243	     -6.31346036	      2.17072857	    -11.45793852	     10.61627807	     -2.45104263	      0.18528901	     17.68277400	     24.98783252	     -7.50219243	    -10.14646864	      0.66750910	     -4.36994154	     -9.02615451	    -12.29517425	      5.42661689	     25.66052182	     90.00000001	      0.00000000	      0.00000000	      9.40731037	    -21.17444313	     20.49477101	     44.81924233	     90.00000001	      0.00000000	      0.00000000
      2.29000000	      1.34522350	      0.85242821	      1.31897837	      0.34852236	      0.96716276	      0.18648728	     21.90186473	     -6.03961766	    -11.55607704	     17.61269997	      3.80018463	      0.30739960	      9.05826370	     10.47530478	     -7.50215625	     -7.19918440	      2.22948961	    -11.31867351	     10.66810237	     -2.37793544	      0.18619351	     18.29241234	     25.19402173	     -7.50215625	    -10.26472439	      0.65895338	     -4.56175715	     -9.24853528	    -12.23462193	      5.32580226	     25.48139989	     90.00000001	      0.00000000	      0.00000000	      9.90956371	    -21.45402011	     20.58230262	     45.45470619	     90.00000001	      0.00000000	      0.00000000
      2.30000000	      1.53502157	      1.01313280	      1.44795145	      0.35936285	      0.96536657	      0.18669788	     21.85405857	     -6.19807725	    -12.82712017	     15.79377744	      3.64229567	      0.27565342	      9.20088443	     13.30035766	     -7.50200281	     -8.02189404	      2.26835384	    -11.44617914	     10.87657222	     -2.35448410	      0.18983200	     18.88737952	     25.74681604	     -7.50200281	    -10.40974052	      0.62400909	     -4.73586081	     -9.35490328	    -11.98599693	      4.69423523	     24.97935617	     90.00000001	      0.00000000	      0.00000000	     10.20526623	    -22.09712557	     21.46094538	     46.84614720	     90.00000001	      0.00000000	      0.00000000
      2.31000000	      1.55723143	      1.23666384	      1.59654856	      0.36999363	      0.96353492	      0.18676719	     21.85880525	     -6.43362172	    -13.13127618	     14.05729558	      3.83552426	      0.24534609	      8.93712371	     14.15935455	     -7.50197659	     -8.57969383	      2.47457226	    -11.15569829	     11.23031989	     -2.48170391	      0.19600606	     19.31374314	     25.76576335	     -7.50197659	    -10.38853778	      0.54602549	     -4.89075587	     -9.62806565	    -11.92792050	      4.62652308	     24.88797950	     90.00000001	      0.00000000	      0.00000000	     10.72000989	    -22.19680252	     21.39189694	     47.17546746	     90.00000001	      0.00000000	      0.00000000
      2.32000000	      1.68671873	      1.32152958	      1.68909188	      0.38090184	      0.96182147	      0.18706533	     21.82341305	     -6.47771191	    -13.86213320	     12.83713004	      3.80787986	      0.22405019	      8.88792521	     16.39991919	     -7.50184481	     -9.31641236	      2.44381047	    -11.07121653	     11.48911380	     -2.46377328	      0.20052286	     19.85332008	     25.91944528	     -7.50184481	    -10.46811001	      0.61324921	     -5.08227466	     -9.68898741	    -11.75835677	      4.07900053	     24.48257794	     90.00000001	      0.00000000	      0.00000000	     10.90388458	    -22.57148233	     21.55481540	     48.13287427	     90.00000001	      0.00000000	      0.00000000
      2.33000000	      1.71802932	      1.42983525	      1.78140971	      0.39172604	      0.96015611	      0.18738605	     21.84868336	     -6.53979077	    -13.94071144	     11.90473947	      3.92812596	      0.20777690	      8.66718397	     17.13195581	     -7.50181400	     -9.87594691	      2.44227987	    -10.80622363	     11.88740873	     -2.46145170	      0.20747442	     20.24035273	     25.89544605	     -7.50181400	    -10.45321192	      0.65482767	     -5.16586736	     -9.85888975	    -11.72307141	      3.98464250	     24.36482732	     90.00000001	      0.00000000	      0.00000000	     11.26396062	    -22.65153657	     21.44912971	     48.47441442	     90.00000001	      0.00000000	      0.00000000
      2.34000000	      1.63425275	      1.50918031	      1.73224321	      0.40264267	      0.95841747	      0.18772529	     22.25525973	     -6.55552395	    -13.92675877	     11.88467775	      3.96784316	      0.20742676	      8.64067496	     17.10512953	     -7.50180550	    -10.34669389	      2.45734186	    -10.74309888	     12.19154826	     -2.49013134	      0.21278266	     20.19238394	     25.78738839	     -7.50180550	    -10.28559461	      0.75711812	     -5.27671074	     -9.93228504	    -11.71626741	      3.97729124	     24.42799989	     90.00000001	      0.00000000	      0.00000000	     11.39433679	    -22.67078876	     21.40239881	     48.56796380	     90.00000001	      0.00000000	      0.00000000
